<svg width="37" height="37" viewBox="0 0 37 37" fill="none" xmlns="http://www.w3.org/2000/svg">
<g id="check-circle-1">
<path id="Shape" opacity="0.1" d="M18.5853 0.932129C8.66503 0.932129 0.623047 8.97411 0.623047 18.8944C0.623047 28.8147 8.66503 36.8567 18.5853 36.8567C28.5056 36.8567 36.5476 28.8147 36.5476 18.8944C36.536 8.9789 28.5008 0.943677 18.5853 0.932129Z" fill="#50D3FC"/>
<path id="Path" d="M28.9544 13.2064L18.7084 27.1107C18.464 27.4349 18.0997 27.6473 17.6972 27.7002C17.2946 27.7531 16.8877 27.6421 16.5679 27.3921L9.25127 21.5424C8.60562 21.0257 8.50108 20.0834 9.01776 19.4378C9.53444 18.7921 10.4767 18.6876 11.1223 19.2043L17.2235 24.0855L26.5444 11.4356C26.8501 10.9769 27.3831 10.7234 27.9317 10.7755C28.4804 10.8277 28.9561 11.1772 29.1698 11.6852C29.3835 12.1933 29.3008 12.7777 28.9544 13.2064Z" fill="#50D3FC"/>
</g>
</svg>
