<svg width="37" height="37" viewBox="0 0 37 37" fill="none" xmlns="http://www.w3.org/2000/svg">
<g id="check-circle-1">
<path id="Shape" opacity="0.1" d="M18.1058 0.633789C8.18553 0.633789 0.143555 8.67577 0.143555 18.5961C0.143555 28.5163 8.18553 36.5583 18.1058 36.5583C28.0261 36.5583 36.0681 28.5163 36.0681 18.5961C36.0565 8.68056 28.0213 0.645337 18.1058 0.633789Z" fill="#5C5C5C"/>
<path id="Path" d="M28.4746 12.908L18.2287 26.8123C17.9843 27.1365 17.6199 27.349 17.2174 27.4019C16.8149 27.4548 16.408 27.3438 16.0882 27.0937L8.77153 21.244C8.12589 20.7273 8.02134 19.7851 8.53802 19.1394C9.0547 18.4938 9.99696 18.3893 10.6426 18.9059L16.7438 23.7872L26.0647 11.1373C26.3703 10.6786 26.9033 10.425 27.452 10.4772C28.0007 10.5294 28.4763 10.8789 28.69 11.3869C28.9038 11.8949 28.821 12.4793 28.4746 12.908Z" fill="#5C5C5C"/>
</g>
</svg>
